# xmcd
#
# Track frame offsets: 
#        150
#        27506
#        42519
#        64580
#        80322
#        97197
#
# Disc length: 1639 seconds
#
# Revision: 0
# Processed by: cddbd v1.5.2PL0 Copyright (c) Steve Scherf et al.
# Submitted via: ExactAudioCopy v0.99pb5
#
DISCID=4a066506
DTITLE=Phil Bradley - Old, Battered, Stolen and Blue
DYEAR=2009
DGENRE=Blues
TTITLE0=My Father Said
TTITLE1=Flatfoot
TTITLE2=Respirator
TTITLE3=Long Long Time
TTITLE4=Die A Little More
TTITLE5=Desert Song
EXTD=
EXTT0=
EXTT1=
EXTT2=
EXTT3=
EXTT4=
EXTT5=
PLAYORDER=
